<svg viewBox="0 0 24 24" fill="none" xmlns="http://www.w3.org/2000/svg">
<g id="decje-sediste">
<path id="Vector" d="M6.5 3H13.5C14.2956 3 15.0587 3.31607 15.6213 3.87868C16.1839 4.44129 16.5 5.20435 16.5 6V15H9.5C8.70435 15 7.94129 14.6839 7.37868 14.1213C6.81607 13.5587 6.5 12.7956 6.5 12V3Z" stroke="currentColor" stroke-width="1.7" stroke-linecap="round" stroke-linejoin="round"/>
<path id="Vector_2" d="M6.5 15H17.5V18C17.5 18.7956 17.1839 19.5587 16.6213 20.1213C16.0587 20.6839 15.2956 21 14.5 21H9.5C8.70435 21 7.94129 20.6839 7.37868 20.1213C6.81607 19.5587 6.5 18.7956 6.5 18V15Z" stroke="currentColor" stroke-width="1.7" stroke-linecap="round" stroke-linejoin="round"/>
<path id="Vector_3" d="M10.5 7V12" stroke="currentColor" stroke-width="1.7" stroke-linecap="round" stroke-linejoin="round"/>
</g>
</svg>
