<svg viewBox="0 0 24 24" fill="none" xmlns="http://www.w3.org/2000/svg">
<g id="dorucak">
<path id="Vector" d="M4.5 12.5H15.5V14.5C15.5 15.5609 15.0786 16.5783 14.3284 17.3284C13.5783 18.0786 12.5609 18.5 11.5 18.5H8.5C7.43913 18.5 6.42172 18.0786 5.67157 17.3284C4.92143 16.5783 4.5 15.5609 4.5 14.5V12.5Z" stroke="currentColor" stroke-width="1.7" stroke-linecap="round" stroke-linejoin="round"/>
<path id="Vector_2" d="M15.5 13.5H17C17.663 13.5 18.2989 13.2366 18.7678 12.7678C19.2366 12.2989 19.5 11.663 19.5 11C19.5 10.337 19.2366 9.70107 18.7678 9.23223C18.2989 8.76339 17.663 8.5 17 8.5H15.5" stroke="currentColor" stroke-width="1.7" stroke-linecap="round" stroke-linejoin="round"/>
<path id="Vector_3" d="M6.5 8.5C6.5 7 7.5 7 7.5 5.5M10.5 8.5C10.5 7 11.5 7 11.5 5.5" stroke="currentColor" stroke-width="1.7" stroke-linecap="round" stroke-linejoin="round"/>
</g>
</svg>
