<svg viewBox="0 0 24 24" fill="none" xmlns="http://www.w3.org/2000/svg">
<g id="ljubimci">
<path id="Vector" d="M7.60039 7.04961C8.00592 7.04993 8.6502 7.54884 8.6502 8.60039C8.65004 9.65168 8.00587 10.1499 7.60039 10.1502C7.19494 10.1502 6.54977 9.65201 6.54961 8.60039C6.54961 7.5485 7.19489 7.04961 7.60039 7.04961Z" stroke="currentColor" stroke-width="1.7" stroke-linecap="round" stroke-linejoin="round"/>
<path id="Vector_2" d="M12 4.94961C12.2338 4.94961 12.5029 5.07097 12.7402 5.3793C12.9783 5.68878 13.1503 6.15305 13.1504 6.69961C13.1504 7.2463 12.9783 7.71037 12.7402 8.01992C12.5028 8.32856 12.2339 8.44961 12 8.44961C11.7661 8.44961 11.4972 8.32856 11.2598 8.01992C11.0217 7.71037 10.8496 7.2463 10.8496 6.69961C10.8497 6.15305 11.0217 5.68878 11.2598 5.3793C11.4971 5.07097 11.7662 4.94961 12 4.94961Z" stroke="currentColor" stroke-width="1.7" stroke-linecap="round" stroke-linejoin="round"/>
<path id="Vector_3" d="M16.4004 7.04961C16.8059 7.04993 17.4502 7.54884 17.4502 8.60039C17.45 9.65168 16.8059 10.1499 16.4004 10.1502C15.9949 10.1502 15.3498 9.65201 15.3496 8.60039C15.3496 7.5485 15.9949 7.04961 16.4004 7.04961Z" stroke="currentColor" stroke-width="1.7" stroke-linecap="round" stroke-linejoin="round"/>
<path id="Vector_4" d="M11.9996 13.2496C14.5128 13.2496 16.2496 15.048 16.2496 16.9C16.2496 18.1785 15.2844 19.1498 13.8004 19.15C13.4777 19.15 13.2369 19.1113 12.9771 19.0641C12.7212 19.0175 12.391 18.9498 11.9996 18.9498C11.6084 18.9498 11.2789 19.0175 11.023 19.0641C10.7632 19.1113 10.5225 19.15 10.1998 19.15C8.71568 19.1499 7.74961 18.1786 7.74961 16.9C7.74961 15.0481 9.48662 13.2498 11.9996 13.2496Z" stroke="currentColor" stroke-width="1.7" stroke-linecap="round" stroke-linejoin="round"/>
</g>
</svg>
